<svg xmlns="http://www.w3.org/2000/svg" height="249.91" viewBox="0 0 229 249.90918" width="229"><g transform="matrix(1.25 0 0 -1.25 -376.27 575.28)"><g><path d="m475.42 345.02c0.0151 0.0183 0.0258 0.0361 0.042 0.0549 5.4821 6.6222 8.2345 14.962 8.2345 23.172 0 4.5909-1.7658 12.535-4.6609 19.249-0.99464 11.39-5.7449 19.94-10.918 25.83-6.0928 6.9361-19.827 14.092-19.827 14.092s-0.0307-8.8053-1.7448-16.313c-0.96826 4.5009-2.7077 9.3072-5.4724 13.754-1.4912 11.65-6.9711 19.611-12.669 24.601-9.1112 7.9787-20.539 9.5511-20.539 9.5511s0.90417-11.511-5.1827-26.6c-3.5919-2.1088-6.7939-4.9177-9.2377-8.3422-2.6877 4.6226-6.5914 8.2054-11.261 10.308-4.5688 9.6459-4.4665 24.966-4.4665 24.966s-13.974-4.159-20.532-9.8839c-5.9673-5.2102-11.65-13.692-12.843-26.202-2.5057-2.8132-4.4552-6.4218-5.5446-10.646-1.3484 6.1542-1.21 15.063-1.21 15.063-7.2991-3.7642-16.059-9.6734-20.113-14.349-5.3825-6.2053-10.358-15.272-11.026-27.472-2.9441-5.8914-4.3523-12.049-4.3523-18.002-0.0242-11.558 5.3615-22.396 14.783-28.872-4.5327-6.718-6.7821-14.147-6.7562-21.893 0.002-5.732 1.1788-11.605 3.3296-17.613 4.7115-13.102 15.988-22.683 30.128-28.978 14.188-6.3066 31.481-9.4714 49.316-9.4795 17.801 0.008 35.092 3.1729 49.289 9.4795 14.146 6.2942 25.442 15.872 30.154 28.978 2.1519 6.0066 3.328 11.881 3.3296 17.611 0.0145 4.4465-0.72377 8.7859-2.2085 12.948-0.005 0.0108-0.005 0.0221-0.01 0.0339 0.16748-0.0108 0.3328-0.0258 0.5019-0.0258 4.1762 0 7.5624 3.3857 7.5624 7.5624 0 3.6748-2.6215 6.7342-6.0971 7.417" fill="#babbbc"/><path d="m90.5 8.4492c-4.464 1.3059-12.107 5.2108-16.633 9.1738-6.869 6.013-13.331 15.655-14.334 30.99-5.753 5.521-9.517 15.135-7.342 27.895 0.472 2.765 1.311 5.982 1.526 6.789-6.456-7.152-12.747-17.402-13.256-33.483-5.055 2.725-11.443 7.575-15.711 12.456-6.291 7.197-11.943 17.634-12.471 32.148-11.5 21.742-3.7963 46.222 15.782 55.492-12.219 14.28-13.941 30.59-7.291 49.16 10.332 28.87 50.826 44.39 94.09 44.39 43.17 0 83.75-15.52 94.08-44.39 6.63-18.52 4.93-34.79-7.2-49.05 14.26-7.26 21.08-21.54 21.07-35.79 0-5.79-3.16-16.327-5.73-21.937-0.98-13.417-6.39-23.18-12.37-30.023-4.27-4.881-11.35-10.176-15.71-12.456-1.27 16.874-3.92 23.26-13.24 32.713 0.83-2.647 1.71-6.062 1.82-8.945 0.29-7.173-1.86-18.504-7.86-27.465-1.51-13.9-7.64-22.812-14.13-28.494-4.53-3.963-12.26-8.1641-16.63-9.1738-0.21 9.3038-3.61 20.446-7.43 30.192-6.4 3.307-11.72 8.552-14.45 15.089l-2.08 5.004-1.73-5.136c-2.87-8.509-8.71-14.471-16.151-17.055-3.479-9.223-6.426-19.453-6.619-28.094zm126.03 141.03c-2.1 0-3.77 1.69-3.77 3.77 0 2.09 1.67 3.77 3.77 3.77 2.08 0 3.77-1.68 3.77-3.77 0-2.08-1.69-3.77-3.77-3.77zm0 1.01c1.61 0 2.76 1.08 2.76 2.76 0 1.69-1.15 2.77-2.76 2.77-1.65 0-2.77-1.08-2.77-2.77 0-1.68 1.12-2.76 2.77-2.76zm-1.55 0.75v4.06h0.9v-1.72h0.59l0.9 1.72h1.03l-0.99-1.72c0.72-0.05 1.12-0.35 1.12-1.1 0-0.96-0.52-1.24-1.58-1.24h-1.97zm0.9 0.7h0.88c0.29 0 0.81-0.04 0.81 0.43 0 0.41-0.26 0.51-0.61 0.51h-1.08v-0.94z" transform="matrix(.8 0 0 -.8 301.01 460.22)" fill="#006A4E"/><path d="m83.578 19.473s-9.451 7.04-13.035 19.517c4.054-2.233 8.689-3.528 13.822-3.547 1.044-0.003 2.076 0.055 3.09 0.17-3.005-7.769-3.877-16.14-3.877-16.14zm62.302 0.002s-0.88 8.382-3.89 16.156c1.14-0.129 2.3-0.193 3.49-0.19 4.86 0.017 9.42 1.393 13.45 3.602-3.58-12.51-13.05-19.568-13.05-19.568zm-0.4 25.474c-11.81-0.043-21.43 11.928-21.48 26.742-0.06 14.812 9.47 26.854 21.29 26.895 7.19 0.027 13.56-4.412 17.46-11.223-5.67 4.184-12.65 5.522-19.57 4.616 0 0 17.37-4.515 21.57-18.122-4.64 5.137-11.08 7.861-17.94 8.428 5.83-1.263 21.37-17.939 13.19-30.086-3.8-4.465-8.89-7.231-14.52-7.25zm-61.142 0.002c-11.812 0.04-21.353 12.076-21.303 26.887 0.047 14.815 9.661 26.79 21.477 26.75 7.193-0.024 13.523-4.507 17.378-11.344-5.64 4.221-12.61 5.611-19.538 4.75 0 0 17.34-4.63 21.448-18.265-4.602 5.167-11.03 7.931-17.876 8.548 5.82-1.307 22.186-17.464 12.986-30.179-3.833-4.436-8.945-7.164-14.572-7.147zm-50.305 17.922s-9.46 7.907-12.113 21.09c4.223-2.995 9.253-4.903 14.996-5.242 0.707-0.043 1.408-0.056 2.104-0.041-3.386-8.001-4.987-15.807-4.987-15.807zm161.39 0s-1.59 7.799-4.98 15.795c0.74-0.016 1.48-0.004 2.24 0.035 5.59 0.288 10.6 2.193 14.83 5.115-2.7-13.095-12.09-20.945-12.09-20.945zm-4.44 25.33c-11.32 0.126-20.91 11.361-21.66 25.687-0.77 14.79 8.17 27.29 19.97 27.9 7.18 0.37 13.75-3.75 17.98-10.37-5.86 3.91-12.9 4.91-19.77 3.67 0 0 17.57-3.67 22.42-17.06-4.88 4.91-11.45 7.32-18.32 7.55 5.88-0.98 23.92-18.49 14.63-29.412-3.58-4.643-8.53-7.652-14.15-7.941-0.37-0.02-0.74-0.028-1.1-0.024zm-152.36 0.006c-0.348-0.001-0.698 0.008-1.049 0.029-11.79 0.698-20.643 13.252-19.765 28.042 0.877 14.78 11.147 26.2 22.943 25.5 7.18-0.42 13.249-5.26 16.719-12.3-5.397 4.53-12.282 6.31-19.243 5.84 0 0 17.054-5.6 20.393-19.44-4.311 5.42-10.571 8.54-17.375 9.54 5.74-1.63 21.006-18.33 11.279-30.859-3.823-3.955-8.682-6.344-13.902-6.352zm76.265 9.477c-14.56 0-22.632 5.074-29.945 16.084-7.907 11.9-13.121 19.61-30.213 29.8-25.688 15.33-29.906 31.32-22.693 51.47 7.607 21.26 40.136 36.46 82.961 36.46 43.17 0 75.34-15.31 82.91-36.58 1.36-3.81 2.3-7.47 2.78-11.01-21.18 39.22-76.83 37.23-76.83 37.23 71.82-14.26 73.53-55.98 73.53-55.98-13.48 37.02-55.75 39.9-55.75 39.9 46.88-19.04 47.15-51.1 47.15-51.1-12.02 33.93-37.68 36.56-37.68 36.56 21.15-11.14 27.2-32.92 29.79-43.33-1.79-1.24-3.71-2.47-5.78-3.7-17.1-10.17-22.33-17.86-30.26-29.75-7.33-11-15.3-16.054-29.97-16.054zm-41.134 35.464h26.424l24.12 39.17 6.53-24.69-3.97-14.48h30.63l-21.58 81.51h-18.51l-23.423-38.13-10.09 38.13h-31.602l11.695-15.04 13.752-51.99-3.976-14.48z" transform="matrix(.8 0 0 -.8 301.01 460.22)" fill="#fff"/></g></g></svg>
